<mxfile host="Electron" modified="2023-12-24T16:46:15.232Z" agent="Mozilla/5.0 (Windows NT 10.0; Win64; x64) AppleWebKit/537.36 (KHTML, like Gecko) draw.io/22.1.11 Chrome/114.0.5735.289 Electron/25.9.8 Safari/537.36" etag="rWtddf5XIroP0VxKCbUU" version="22.1.11" type="device">
  <diagram name="Страница — 1" id="q5DapD2C3K-lD5-cS6qq">
    <mxGraphModel dx="1647" dy="734" grid="0" gridSize="10" guides="1" tooltips="1" connect="1" arrows="1" fold="1" page="0" pageScale="1" pageWidth="827" pageHeight="1169" math="0" shadow="0">
      <root>
        <mxCell id="0" />
        <mxCell id="1" parent="0" />
        <mxCell id="Sv3gdEYGtk0QGJuTIO34-71" value="" style="rounded=1;whiteSpace=wrap;html=1;" vertex="1" parent="1">
          <mxGeometry x="85.5" y="850" width="536" height="200" as="geometry" />
        </mxCell>
        <mxCell id="Sv3gdEYGtk0QGJuTIO34-1" value="" style="ellipse;whiteSpace=wrap;html=1;aspect=fixed;" vertex="1" parent="1">
          <mxGeometry x="40" y="320" width="40" height="40" as="geometry" />
        </mxCell>
        <mxCell id="Sv3gdEYGtk0QGJuTIO34-2" value="" style="strokeWidth=2;html=1;shape=mxgraph.flowchart.decision;whiteSpace=wrap;" vertex="1" parent="1">
          <mxGeometry x="120" y="320" width="40" height="40" as="geometry" />
        </mxCell>
        <mxCell id="Sv3gdEYGtk0QGJuTIO34-3" value="" style="endArrow=classic;html=1;rounded=0;exitX=1;exitY=0.5;exitDx=0;exitDy=0;entryX=0;entryY=0.5;entryDx=0;entryDy=0;entryPerimeter=0;" edge="1" parent="1" source="Sv3gdEYGtk0QGJuTIO34-1" target="Sv3gdEYGtk0QGJuTIO34-2">
          <mxGeometry width="50" height="50" relative="1" as="geometry">
            <mxPoint x="180" y="360" as="sourcePoint" />
            <mxPoint x="230" y="310" as="targetPoint" />
          </mxGeometry>
        </mxCell>
        <mxCell id="Sv3gdEYGtk0QGJuTIO34-4" value="" style="endArrow=none;html=1;rounded=0;" edge="1" parent="1">
          <mxGeometry width="50" height="50" relative="1" as="geometry">
            <mxPoint x="135" y="345" as="sourcePoint" />
            <mxPoint x="145" y="335" as="targetPoint" />
          </mxGeometry>
        </mxCell>
        <mxCell id="Sv3gdEYGtk0QGJuTIO34-5" value="" style="endArrow=none;html=1;rounded=0;" edge="1" parent="1">
          <mxGeometry width="50" height="50" relative="1" as="geometry">
            <mxPoint x="135" y="335" as="sourcePoint" />
            <mxPoint x="145" y="345" as="targetPoint" />
            <Array as="points">
              <mxPoint x="135" y="335" />
            </Array>
          </mxGeometry>
        </mxCell>
        <mxCell id="Sv3gdEYGtk0QGJuTIO34-6" value="" style="rounded=1;whiteSpace=wrap;html=1;" vertex="1" parent="1">
          <mxGeometry x="200" y="240" width="80" height="40" as="geometry" />
        </mxCell>
        <mxCell id="Sv3gdEYGtk0QGJuTIO34-7" value="" style="endArrow=classic;html=1;rounded=0;exitX=0.5;exitY=0;exitDx=0;exitDy=0;exitPerimeter=0;entryX=0;entryY=0.5;entryDx=0;entryDy=0;" edge="1" parent="1" source="Sv3gdEYGtk0QGJuTIO34-2" target="Sv3gdEYGtk0QGJuTIO34-6">
          <mxGeometry width="50" height="50" relative="1" as="geometry">
            <mxPoint x="230" y="330" as="sourcePoint" />
            <mxPoint x="280" y="280" as="targetPoint" />
            <Array as="points">
              <mxPoint x="140" y="260" />
            </Array>
          </mxGeometry>
        </mxCell>
        <mxCell id="Sv3gdEYGtk0QGJuTIO34-8" value="" style="rounded=1;whiteSpace=wrap;html=1;" vertex="1" parent="1">
          <mxGeometry x="200" y="400" width="80" height="40" as="geometry" />
        </mxCell>
        <mxCell id="Sv3gdEYGtk0QGJuTIO34-9" value="" style="endArrow=classic;html=1;rounded=0;exitX=0.5;exitY=1;exitDx=0;exitDy=0;exitPerimeter=0;entryX=0;entryY=0.5;entryDx=0;entryDy=0;" edge="1" parent="1" target="Sv3gdEYGtk0QGJuTIO34-8" source="Sv3gdEYGtk0QGJuTIO34-2">
          <mxGeometry width="50" height="50" relative="1" as="geometry">
            <mxPoint x="140" y="480" as="sourcePoint" />
            <mxPoint x="280" y="440" as="targetPoint" />
            <Array as="points">
              <mxPoint x="140" y="420" />
            </Array>
          </mxGeometry>
        </mxCell>
        <mxCell id="Sv3gdEYGtk0QGJuTIO34-10" value="" style="strokeWidth=2;html=1;shape=mxgraph.flowchart.decision;whiteSpace=wrap;" vertex="1" parent="1">
          <mxGeometry x="320" y="320" width="40" height="40" as="geometry" />
        </mxCell>
        <mxCell id="Sv3gdEYGtk0QGJuTIO34-11" value="" style="endArrow=none;html=1;rounded=0;" edge="1" parent="1">
          <mxGeometry width="50" height="50" relative="1" as="geometry">
            <mxPoint x="335" y="345" as="sourcePoint" />
            <mxPoint x="345" y="335" as="targetPoint" />
          </mxGeometry>
        </mxCell>
        <mxCell id="Sv3gdEYGtk0QGJuTIO34-12" value="" style="endArrow=none;html=1;rounded=0;" edge="1" parent="1">
          <mxGeometry width="50" height="50" relative="1" as="geometry">
            <mxPoint x="335" y="335" as="sourcePoint" />
            <mxPoint x="345" y="345" as="targetPoint" />
            <Array as="points">
              <mxPoint x="335" y="335" />
            </Array>
          </mxGeometry>
        </mxCell>
        <mxCell id="Sv3gdEYGtk0QGJuTIO34-13" value="" style="endArrow=classic;html=1;rounded=0;" edge="1" parent="1">
          <mxGeometry width="50" height="50" relative="1" as="geometry">
            <mxPoint x="280" y="260" as="sourcePoint" />
            <mxPoint x="340" y="320" as="targetPoint" />
            <Array as="points">
              <mxPoint x="340" y="260" />
            </Array>
          </mxGeometry>
        </mxCell>
        <mxCell id="Sv3gdEYGtk0QGJuTIO34-14" value="" style="endArrow=classic;html=1;rounded=0;" edge="1" parent="1">
          <mxGeometry width="50" height="50" relative="1" as="geometry">
            <mxPoint x="280" y="420" as="sourcePoint" />
            <mxPoint x="340" y="360" as="targetPoint" />
            <Array as="points">
              <mxPoint x="340" y="420" />
            </Array>
          </mxGeometry>
        </mxCell>
        <mxCell id="Sv3gdEYGtk0QGJuTIO34-15" value="" style="strokeWidth=2;html=1;shape=mxgraph.flowchart.decision;whiteSpace=wrap;" vertex="1" parent="1">
          <mxGeometry x="440" y="320" width="40" height="40" as="geometry" />
        </mxCell>
        <mxCell id="Sv3gdEYGtk0QGJuTIO34-16" value="" style="endArrow=classic;html=1;rounded=0;exitX=1;exitY=0.5;exitDx=0;exitDy=0;entryX=0;entryY=0.5;entryDx=0;entryDy=0;entryPerimeter=0;" edge="1" parent="1" target="Sv3gdEYGtk0QGJuTIO34-15">
          <mxGeometry width="50" height="50" relative="1" as="geometry">
            <mxPoint x="360" y="340" as="sourcePoint" />
            <mxPoint x="550" y="310" as="targetPoint" />
          </mxGeometry>
        </mxCell>
        <mxCell id="Sv3gdEYGtk0QGJuTIO34-17" value="" style="endArrow=none;html=1;rounded=0;" edge="1" parent="1">
          <mxGeometry width="50" height="50" relative="1" as="geometry">
            <mxPoint x="455" y="345" as="sourcePoint" />
            <mxPoint x="465" y="335" as="targetPoint" />
          </mxGeometry>
        </mxCell>
        <mxCell id="Sv3gdEYGtk0QGJuTIO34-18" value="" style="endArrow=none;html=1;rounded=0;" edge="1" parent="1">
          <mxGeometry width="50" height="50" relative="1" as="geometry">
            <mxPoint x="455" y="335" as="sourcePoint" />
            <mxPoint x="465" y="345" as="targetPoint" />
            <Array as="points">
              <mxPoint x="455" y="335" />
            </Array>
          </mxGeometry>
        </mxCell>
        <mxCell id="Sv3gdEYGtk0QGJuTIO34-19" value="&lt;font style=&quot;font-size: 6px;&quot;&gt;Изменение информации о чувствительных данных&lt;br&gt;&lt;/font&gt;" style="rounded=1;whiteSpace=wrap;html=1;" vertex="1" parent="1">
          <mxGeometry x="520" y="240" width="80" height="40" as="geometry" />
        </mxCell>
        <mxCell id="Sv3gdEYGtk0QGJuTIO34-20" value="" style="endArrow=classic;html=1;rounded=0;exitX=0.5;exitY=0;exitDx=0;exitDy=0;exitPerimeter=0;entryX=0;entryY=0.5;entryDx=0;entryDy=0;" edge="1" parent="1" source="Sv3gdEYGtk0QGJuTIO34-15" target="Sv3gdEYGtk0QGJuTIO34-19">
          <mxGeometry width="50" height="50" relative="1" as="geometry">
            <mxPoint x="550" y="330" as="sourcePoint" />
            <mxPoint x="600" y="280" as="targetPoint" />
            <Array as="points">
              <mxPoint x="460" y="260" />
            </Array>
          </mxGeometry>
        </mxCell>
        <mxCell id="Sv3gdEYGtk0QGJuTIO34-21" value="" style="rounded=1;whiteSpace=wrap;html=1;" vertex="1" parent="1">
          <mxGeometry x="520" y="400" width="80" height="40" as="geometry" />
        </mxCell>
        <mxCell id="Sv3gdEYGtk0QGJuTIO34-22" value="" style="endArrow=classic;html=1;rounded=0;exitX=0.5;exitY=1;exitDx=0;exitDy=0;exitPerimeter=0;entryX=0;entryY=0.5;entryDx=0;entryDy=0;" edge="1" parent="1" source="Sv3gdEYGtk0QGJuTIO34-15" target="Sv3gdEYGtk0QGJuTIO34-21">
          <mxGeometry width="50" height="50" relative="1" as="geometry">
            <mxPoint x="460" y="480" as="sourcePoint" />
            <mxPoint x="600" y="440" as="targetPoint" />
            <Array as="points">
              <mxPoint x="460" y="420" />
            </Array>
          </mxGeometry>
        </mxCell>
        <mxCell id="Sv3gdEYGtk0QGJuTIO34-23" value="" style="strokeWidth=2;html=1;shape=mxgraph.flowchart.decision;whiteSpace=wrap;" vertex="1" parent="1">
          <mxGeometry x="640" y="320" width="40" height="40" as="geometry" />
        </mxCell>
        <mxCell id="Sv3gdEYGtk0QGJuTIO34-24" value="" style="endArrow=none;html=1;rounded=0;" edge="1" parent="1">
          <mxGeometry width="50" height="50" relative="1" as="geometry">
            <mxPoint x="655" y="345" as="sourcePoint" />
            <mxPoint x="665" y="335" as="targetPoint" />
          </mxGeometry>
        </mxCell>
        <mxCell id="Sv3gdEYGtk0QGJuTIO34-25" value="" style="endArrow=none;html=1;rounded=0;" edge="1" parent="1">
          <mxGeometry width="50" height="50" relative="1" as="geometry">
            <mxPoint x="655" y="335" as="sourcePoint" />
            <mxPoint x="665" y="345" as="targetPoint" />
            <Array as="points">
              <mxPoint x="655" y="335" />
            </Array>
          </mxGeometry>
        </mxCell>
        <mxCell id="Sv3gdEYGtk0QGJuTIO34-26" value="" style="endArrow=classic;html=1;rounded=0;exitX=1;exitY=0.5;exitDx=0;exitDy=0;" edge="1" parent="1" source="Sv3gdEYGtk0QGJuTIO34-19">
          <mxGeometry width="50" height="50" relative="1" as="geometry">
            <mxPoint x="540" y="320" as="sourcePoint" />
            <mxPoint x="660" y="320" as="targetPoint" />
            <Array as="points">
              <mxPoint x="660" y="260" />
            </Array>
          </mxGeometry>
        </mxCell>
        <mxCell id="Sv3gdEYGtk0QGJuTIO34-27" value="" style="endArrow=classic;html=1;rounded=0;exitX=1;exitY=0.5;exitDx=0;exitDy=0;" edge="1" parent="1" source="Sv3gdEYGtk0QGJuTIO34-32">
          <mxGeometry width="50" height="50" relative="1" as="geometry">
            <mxPoint x="710" y="420" as="sourcePoint" />
            <mxPoint x="660" y="360" as="targetPoint" />
            <Array as="points">
              <mxPoint x="660" y="420" />
            </Array>
          </mxGeometry>
        </mxCell>
        <mxCell id="Sv3gdEYGtk0QGJuTIO34-28" value="" style="endArrow=classic;html=1;rounded=0;exitX=1;exitY=0.5;exitDx=0;exitDy=0;exitPerimeter=0;" edge="1" parent="1" source="Sv3gdEYGtk0QGJuTIO34-23">
          <mxGeometry width="50" height="50" relative="1" as="geometry">
            <mxPoint x="700" y="360" as="sourcePoint" />
            <mxPoint x="720" y="340" as="targetPoint" />
          </mxGeometry>
        </mxCell>
        <mxCell id="Sv3gdEYGtk0QGJuTIO34-29" value="" style="ellipse;whiteSpace=wrap;html=1;aspect=fixed;" vertex="1" parent="1">
          <mxGeometry x="720" y="320" width="40" height="40" as="geometry" />
        </mxCell>
        <mxCell id="Sv3gdEYGtk0QGJuTIO34-30" value="&lt;font style=&quot;font-size: 7px;&quot;&gt;Создание чувствительных данных&lt;/font&gt;" style="text;html=1;strokeColor=none;fillColor=none;align=center;verticalAlign=middle;whiteSpace=wrap;rounded=0;" vertex="1" parent="1">
          <mxGeometry x="210" y="247.5" width="60" height="25" as="geometry" />
        </mxCell>
        <mxCell id="Sv3gdEYGtk0QGJuTIO34-31" value="&lt;font style=&quot;font-size: 7px;&quot;&gt;Открытие существующей записи данных&lt;/font&gt;" style="text;html=1;strokeColor=none;fillColor=none;align=center;verticalAlign=middle;whiteSpace=wrap;rounded=0;" vertex="1" parent="1">
          <mxGeometry x="210" y="407.5" width="60" height="25" as="geometry" />
        </mxCell>
        <mxCell id="Sv3gdEYGtk0QGJuTIO34-32" value="&lt;font style=&quot;font-size: 6px;&quot;&gt;Удаление&amp;nbsp; чувствительных данных&lt;br&gt;&lt;/font&gt;" style="rounded=1;whiteSpace=wrap;html=1;" vertex="1" parent="1">
          <mxGeometry x="520" y="400" width="80" height="40" as="geometry" />
        </mxCell>
        <mxCell id="Sv3gdEYGtk0QGJuTIO34-33" value="" style="shape=datastore;whiteSpace=wrap;html=1;" vertex="1" parent="1">
          <mxGeometry x="370" y="120" width="60" height="60" as="geometry" />
        </mxCell>
        <mxCell id="Sv3gdEYGtk0QGJuTIO34-34" value="" style="endArrow=block;dashed=1;endFill=0;endSize=12;html=1;rounded=0;exitX=0.5;exitY=1;exitDx=0;exitDy=0;entryX=0.5;entryY=0;entryDx=0;entryDy=0;" edge="1" parent="1" source="Sv3gdEYGtk0QGJuTIO34-33" target="Sv3gdEYGtk0QGJuTIO34-6">
          <mxGeometry width="160" relative="1" as="geometry">
            <mxPoint x="330" y="300" as="sourcePoint" />
            <mxPoint x="220" y="230" as="targetPoint" />
            <Array as="points">
              <mxPoint x="400" y="200" />
              <mxPoint x="240" y="200" />
            </Array>
          </mxGeometry>
        </mxCell>
        <mxCell id="Sv3gdEYGtk0QGJuTIO34-35" value="" style="endArrow=block;dashed=1;endFill=0;endSize=12;html=1;rounded=0;entryX=0.5;entryY=0;entryDx=0;entryDy=0;exitX=0.5;exitY=1;exitDx=0;exitDy=0;" edge="1" parent="1" source="Sv3gdEYGtk0QGJuTIO34-33" target="Sv3gdEYGtk0QGJuTIO34-19">
          <mxGeometry width="160" relative="1" as="geometry">
            <mxPoint x="330" y="300" as="sourcePoint" />
            <mxPoint x="490" y="300" as="targetPoint" />
            <Array as="points">
              <mxPoint x="400" y="200" />
              <mxPoint x="560" y="200" />
            </Array>
          </mxGeometry>
        </mxCell>
        <mxCell id="Sv3gdEYGtk0QGJuTIO34-36" value="" style="endArrow=block;dashed=1;endFill=0;endSize=12;html=1;rounded=0;exitX=0.5;exitY=1;exitDx=0;exitDy=0;entryX=0.5;entryY=1;entryDx=0;entryDy=0;" edge="1" parent="1" source="Sv3gdEYGtk0QGJuTIO34-33" target="Sv3gdEYGtk0QGJuTIO34-32">
          <mxGeometry width="160" relative="1" as="geometry">
            <mxPoint x="330" y="370" as="sourcePoint" />
            <mxPoint x="400" y="480" as="targetPoint" />
            <Array as="points">
              <mxPoint x="400" y="480" />
              <mxPoint x="560" y="480" />
            </Array>
          </mxGeometry>
        </mxCell>
        <mxCell id="Sv3gdEYGtk0QGJuTIO34-37" value="" style="endArrow=block;dashed=1;endFill=0;endSize=12;html=1;rounded=0;entryX=0.5;entryY=1;entryDx=0;entryDy=0;" edge="1" parent="1" target="Sv3gdEYGtk0QGJuTIO34-8">
          <mxGeometry width="160" relative="1" as="geometry">
            <mxPoint x="400" y="180" as="sourcePoint" />
            <mxPoint x="490" y="370" as="targetPoint" />
            <Array as="points">
              <mxPoint x="400" y="480" />
              <mxPoint x="240" y="480" />
            </Array>
          </mxGeometry>
        </mxCell>
        <mxCell id="Sv3gdEYGtk0QGJuTIO34-38" value="БД Чувствиительных данных" style="text;html=1;strokeColor=none;fillColor=none;align=center;verticalAlign=middle;whiteSpace=wrap;rounded=0;" vertex="1" parent="1">
          <mxGeometry x="430" y="150" width="140" height="30" as="geometry" />
        </mxCell>
        <mxCell id="Sv3gdEYGtk0QGJuTIO34-39" value="Пользователь&#xa;" style="swimlane;rotation=-90;" vertex="1" parent="1">
          <mxGeometry x="170" y="-110" width="440" height="830" as="geometry" />
        </mxCell>
        <mxCell id="Sv3gdEYGtk0QGJuTIO34-45" value="" style="ellipse;whiteSpace=wrap;html=1;aspect=fixed;" vertex="1" parent="1">
          <mxGeometry x="-86.5" y="1040" width="40" height="40" as="geometry" />
        </mxCell>
        <mxCell id="Sv3gdEYGtk0QGJuTIO34-46" value="" style="strokeWidth=2;html=1;shape=mxgraph.flowchart.decision;whiteSpace=wrap;" vertex="1" parent="1">
          <mxGeometry x="-6.5" y="1040" width="40" height="40" as="geometry" />
        </mxCell>
        <mxCell id="Sv3gdEYGtk0QGJuTIO34-47" value="" style="endArrow=classic;html=1;rounded=0;exitX=1;exitY=0.5;exitDx=0;exitDy=0;entryX=0;entryY=0.5;entryDx=0;entryDy=0;entryPerimeter=0;" edge="1" parent="1" source="Sv3gdEYGtk0QGJuTIO34-45" target="Sv3gdEYGtk0QGJuTIO34-46">
          <mxGeometry width="50" height="50" relative="1" as="geometry">
            <mxPoint x="53.5" y="1080" as="sourcePoint" />
            <mxPoint x="103.5" y="1030" as="targetPoint" />
          </mxGeometry>
        </mxCell>
        <mxCell id="Sv3gdEYGtk0QGJuTIO34-48" value="" style="endArrow=none;html=1;rounded=0;" edge="1" parent="1">
          <mxGeometry width="50" height="50" relative="1" as="geometry">
            <mxPoint x="8.5" y="1065" as="sourcePoint" />
            <mxPoint x="18.5" y="1055" as="targetPoint" />
          </mxGeometry>
        </mxCell>
        <mxCell id="Sv3gdEYGtk0QGJuTIO34-49" value="" style="endArrow=none;html=1;rounded=0;" edge="1" parent="1">
          <mxGeometry width="50" height="50" relative="1" as="geometry">
            <mxPoint x="8.5" y="1055" as="sourcePoint" />
            <mxPoint x="18.5" y="1065" as="targetPoint" />
            <Array as="points">
              <mxPoint x="8.5" y="1055" />
            </Array>
          </mxGeometry>
        </mxCell>
        <mxCell id="Sv3gdEYGtk0QGJuTIO34-50" value="" style="endArrow=classic;html=1;rounded=0;exitX=0.5;exitY=0;exitDx=0;exitDy=0;exitPerimeter=0;entryX=-0.004;entryY=0.65;entryDx=0;entryDy=0;entryPerimeter=0;" edge="1" parent="1" target="Sv3gdEYGtk0QGJuTIO34-71">
          <mxGeometry width="50" height="50" relative="1" as="geometry">
            <mxPoint x="13.5" y="1040" as="sourcePoint" />
            <mxPoint x="73.5" y="980" as="targetPoint" />
            <Array as="points">
              <mxPoint x="13.5" y="980" />
            </Array>
          </mxGeometry>
        </mxCell>
        <mxCell id="Sv3gdEYGtk0QGJuTIO34-51" value="" style="endArrow=classic;html=1;rounded=0;entryX=0;entryY=0.5;entryDx=0;entryDy=0;" edge="1" parent="1" target="Sv3gdEYGtk0QGJuTIO34-78">
          <mxGeometry width="50" height="50" relative="1" as="geometry">
            <mxPoint x="13.5" y="1080" as="sourcePoint" />
            <mxPoint x="73.5" y="1140" as="targetPoint" />
            <Array as="points">
              <mxPoint x="13.5" y="1140" />
              <mxPoint x="43.5" y="1140" />
            </Array>
          </mxGeometry>
        </mxCell>
        <mxCell id="Sv3gdEYGtk0QGJuTIO34-52" value="" style="ellipse;whiteSpace=wrap;html=1;aspect=fixed;" vertex="1" parent="1">
          <mxGeometry x="113.5" y="960" width="40" height="40" as="geometry" />
        </mxCell>
        <mxCell id="Sv3gdEYGtk0QGJuTIO34-53" value="" style="endArrow=classic;html=1;rounded=0;exitX=1;exitY=0.5;exitDx=0;exitDy=0;" edge="1" parent="1" source="Sv3gdEYGtk0QGJuTIO34-52">
          <mxGeometry width="50" height="50" relative="1" as="geometry">
            <mxPoint x="263.5" y="1080" as="sourcePoint" />
            <mxPoint x="193.5" y="980" as="targetPoint" />
          </mxGeometry>
        </mxCell>
        <mxCell id="Sv3gdEYGtk0QGJuTIO34-54" value="" style="rounded=1;whiteSpace=wrap;html=1;" vertex="1" parent="1">
          <mxGeometry x="193.5" y="960" width="80" height="40" as="geometry" />
        </mxCell>
        <mxCell id="Sv3gdEYGtk0QGJuTIO34-55" value="" style="endArrow=classic;html=1;rounded=0;exitX=1;exitY=0.5;exitDx=0;exitDy=0;" edge="1" parent="1">
          <mxGeometry width="50" height="50" relative="1" as="geometry">
            <mxPoint x="273.5" y="980" as="sourcePoint" />
            <mxPoint x="313.5" y="980" as="targetPoint" />
          </mxGeometry>
        </mxCell>
        <mxCell id="Sv3gdEYGtk0QGJuTIO34-56" value="" style="rounded=1;whiteSpace=wrap;html=1;" vertex="1" parent="1">
          <mxGeometry x="313.5" y="960" width="80" height="40" as="geometry" />
        </mxCell>
        <mxCell id="Sv3gdEYGtk0QGJuTIO34-57" value="" style="ellipse;whiteSpace=wrap;html=1;aspect=fixed;" vertex="1" parent="1">
          <mxGeometry x="553.5" y="960" width="40" height="40" as="geometry" />
        </mxCell>
        <mxCell id="Sv3gdEYGtk0QGJuTIO34-60" value="Ввод данных" style="text;html=1;strokeColor=none;fillColor=none;align=center;verticalAlign=middle;whiteSpace=wrap;rounded=0;" vertex="1" parent="1">
          <mxGeometry x="203.5" y="965" width="60" height="30" as="geometry" />
        </mxCell>
        <mxCell id="Sv3gdEYGtk0QGJuTIO34-61" value="Установление прав" style="text;html=1;strokeColor=none;fillColor=none;align=center;verticalAlign=middle;whiteSpace=wrap;rounded=0;" vertex="1" parent="1">
          <mxGeometry x="323.5" y="965" width="60" height="30" as="geometry" />
        </mxCell>
        <mxCell id="Sv3gdEYGtk0QGJuTIO34-62" value="" style="endArrow=classic;html=1;rounded=0;exitX=1;exitY=0.5;exitDx=0;exitDy=0;" edge="1" parent="1">
          <mxGeometry width="50" height="50" relative="1" as="geometry">
            <mxPoint x="393.5" y="980" as="sourcePoint" />
            <mxPoint x="433.5" y="980" as="targetPoint" />
          </mxGeometry>
        </mxCell>
        <mxCell id="Sv3gdEYGtk0QGJuTIO34-63" value="" style="rounded=1;whiteSpace=wrap;html=1;" vertex="1" parent="1">
          <mxGeometry x="433.5" y="960" width="80" height="40" as="geometry" />
        </mxCell>
        <mxCell id="Sv3gdEYGtk0QGJuTIO34-64" value="" style="endArrow=classic;html=1;rounded=0;entryX=0;entryY=0.5;entryDx=0;entryDy=0;exitX=1;exitY=0.5;exitDx=0;exitDy=0;" edge="1" parent="1" source="Sv3gdEYGtk0QGJuTIO34-63">
          <mxGeometry width="50" height="50" relative="1" as="geometry">
            <mxPoint x="383.5" y="1080" as="sourcePoint" />
            <mxPoint x="553.5" y="980" as="targetPoint" />
          </mxGeometry>
        </mxCell>
        <mxCell id="Sv3gdEYGtk0QGJuTIO34-65" value="Добавление в БД" style="text;html=1;strokeColor=none;fillColor=none;align=center;verticalAlign=middle;whiteSpace=wrap;rounded=0;" vertex="1" parent="1">
          <mxGeometry x="443.5" y="965" width="60" height="30" as="geometry" />
        </mxCell>
        <mxCell id="Sv3gdEYGtk0QGJuTIO34-72" value="&lt;font style=&quot;font-size: 10px;&quot;&gt;Создание чувствительных данных&lt;/font&gt;" style="text;html=1;strokeColor=none;fillColor=none;align=center;verticalAlign=middle;whiteSpace=wrap;rounded=0;" vertex="1" parent="1">
          <mxGeometry x="173.5" y="855" width="190" height="25" as="geometry" />
        </mxCell>
        <mxCell id="Sv3gdEYGtk0QGJuTIO34-73" value="" style="strokeWidth=2;html=1;shape=mxgraph.flowchart.decision;whiteSpace=wrap;" vertex="1" parent="1">
          <mxGeometry x="661.5" y="1040" width="40" height="40" as="geometry" />
        </mxCell>
        <mxCell id="Sv3gdEYGtk0QGJuTIO34-74" value="" style="endArrow=none;html=1;rounded=0;" edge="1" parent="1">
          <mxGeometry width="50" height="50" relative="1" as="geometry">
            <mxPoint x="676.5" y="1065" as="sourcePoint" />
            <mxPoint x="686.5" y="1055" as="targetPoint" />
          </mxGeometry>
        </mxCell>
        <mxCell id="Sv3gdEYGtk0QGJuTIO34-75" value="" style="endArrow=none;html=1;rounded=0;" edge="1" parent="1">
          <mxGeometry width="50" height="50" relative="1" as="geometry">
            <mxPoint x="676.5" y="1055" as="sourcePoint" />
            <mxPoint x="686.5" y="1065" as="targetPoint" />
            <Array as="points">
              <mxPoint x="676.5" y="1055" />
            </Array>
          </mxGeometry>
        </mxCell>
        <mxCell id="Sv3gdEYGtk0QGJuTIO34-76" value="" style="endArrow=classic;html=1;rounded=0;" edge="1" parent="1">
          <mxGeometry width="50" height="50" relative="1" as="geometry">
            <mxPoint x="621.5" y="980" as="sourcePoint" />
            <mxPoint x="681.5" y="1040" as="targetPoint" />
            <Array as="points">
              <mxPoint x="681.5" y="980" />
            </Array>
          </mxGeometry>
        </mxCell>
        <mxCell id="Sv3gdEYGtk0QGJuTIO34-77" value="" style="endArrow=classic;html=1;rounded=0;exitX=1;exitY=0.5;exitDx=0;exitDy=0;" edge="1" parent="1" source="Sv3gdEYGtk0QGJuTIO34-78">
          <mxGeometry width="50" height="50" relative="1" as="geometry">
            <mxPoint x="621.5" y="1140" as="sourcePoint" />
            <mxPoint x="681.5" y="1080" as="targetPoint" />
            <Array as="points">
              <mxPoint x="681.5" y="1140" />
            </Array>
          </mxGeometry>
        </mxCell>
        <mxCell id="Sv3gdEYGtk0QGJuTIO34-78" value="" style="rounded=1;whiteSpace=wrap;html=1;" vertex="1" parent="1">
          <mxGeometry x="303.5" y="1120" width="80" height="40" as="geometry" />
        </mxCell>
        <mxCell id="Sv3gdEYGtk0QGJuTIO34-79" value="&lt;font style=&quot;font-size: 7px;&quot;&gt;Открытие существующей записи данных&lt;/font&gt;" style="text;html=1;strokeColor=none;fillColor=none;align=center;verticalAlign=middle;whiteSpace=wrap;rounded=0;" vertex="1" parent="1">
          <mxGeometry x="313.5" y="1127.5" width="60" height="25" as="geometry" />
        </mxCell>
        <mxCell id="Sv3gdEYGtk0QGJuTIO34-80" value="" style="strokeWidth=2;html=1;shape=mxgraph.flowchart.decision;whiteSpace=wrap;" vertex="1" parent="1">
          <mxGeometry x="780.5" y="1040" width="40" height="40" as="geometry" />
        </mxCell>
        <mxCell id="Sv3gdEYGtk0QGJuTIO34-81" value="" style="endArrow=classic;html=1;rounded=0;exitX=1;exitY=0.5;exitDx=0;exitDy=0;entryX=0;entryY=0.5;entryDx=0;entryDy=0;entryPerimeter=0;" edge="1" parent="1" target="Sv3gdEYGtk0QGJuTIO34-80">
          <mxGeometry width="50" height="50" relative="1" as="geometry">
            <mxPoint x="700.5" y="1060" as="sourcePoint" />
            <mxPoint x="890.5" y="1030" as="targetPoint" />
          </mxGeometry>
        </mxCell>
        <mxCell id="Sv3gdEYGtk0QGJuTIO34-82" value="" style="endArrow=none;html=1;rounded=0;" edge="1" parent="1">
          <mxGeometry width="50" height="50" relative="1" as="geometry">
            <mxPoint x="795.5" y="1065" as="sourcePoint" />
            <mxPoint x="805.5" y="1055" as="targetPoint" />
          </mxGeometry>
        </mxCell>
        <mxCell id="Sv3gdEYGtk0QGJuTIO34-84" value="" style="rounded=1;whiteSpace=wrap;html=1;" vertex="1" parent="1">
          <mxGeometry x="870.5" y="850" width="536" height="200" as="geometry" />
        </mxCell>
        <mxCell id="Sv3gdEYGtk0QGJuTIO34-86" value="" style="endArrow=none;html=1;rounded=0;" edge="1" parent="1">
          <mxGeometry width="50" height="50" relative="1" as="geometry">
            <mxPoint x="793.5" y="1055" as="sourcePoint" />
            <mxPoint x="803.5" y="1065" as="targetPoint" />
            <Array as="points">
              <mxPoint x="793.5" y="1055" />
            </Array>
          </mxGeometry>
        </mxCell>
        <mxCell id="Sv3gdEYGtk0QGJuTIO34-87" value="" style="endArrow=classic;html=1;rounded=0;exitX=0.5;exitY=0;exitDx=0;exitDy=0;exitPerimeter=0;entryX=-0.004;entryY=0.65;entryDx=0;entryDy=0;entryPerimeter=0;" edge="1" parent="1" target="Sv3gdEYGtk0QGJuTIO34-84">
          <mxGeometry width="50" height="50" relative="1" as="geometry">
            <mxPoint x="798.5" y="1040" as="sourcePoint" />
            <mxPoint x="858.5" y="980" as="targetPoint" />
            <Array as="points">
              <mxPoint x="798.5" y="980" />
            </Array>
          </mxGeometry>
        </mxCell>
        <mxCell id="Sv3gdEYGtk0QGJuTIO34-88" value="" style="endArrow=classic;html=1;rounded=0;entryX=0;entryY=0.5;entryDx=0;entryDy=0;" edge="1" parent="1" target="Sv3gdEYGtk0QGJuTIO34-110">
          <mxGeometry width="50" height="50" relative="1" as="geometry">
            <mxPoint x="798.5" y="1080" as="sourcePoint" />
            <mxPoint x="858.5" y="1140" as="targetPoint" />
            <Array as="points">
              <mxPoint x="798.5" y="1140" />
              <mxPoint x="828.5" y="1140" />
            </Array>
          </mxGeometry>
        </mxCell>
        <mxCell id="Sv3gdEYGtk0QGJuTIO34-89" value="" style="ellipse;whiteSpace=wrap;html=1;aspect=fixed;" vertex="1" parent="1">
          <mxGeometry x="898.5" y="960" width="40" height="40" as="geometry" />
        </mxCell>
        <mxCell id="Sv3gdEYGtk0QGJuTIO34-90" value="" style="endArrow=classic;html=1;rounded=0;exitX=1;exitY=0.5;exitDx=0;exitDy=0;" edge="1" parent="1" source="Sv3gdEYGtk0QGJuTIO34-89">
          <mxGeometry width="50" height="50" relative="1" as="geometry">
            <mxPoint x="1048.5" y="1080" as="sourcePoint" />
            <mxPoint x="978.5" y="980" as="targetPoint" />
          </mxGeometry>
        </mxCell>
        <mxCell id="Sv3gdEYGtk0QGJuTIO34-91" value="" style="rounded=1;whiteSpace=wrap;html=1;" vertex="1" parent="1">
          <mxGeometry x="978.5" y="960" width="80" height="40" as="geometry" />
        </mxCell>
        <mxCell id="Sv3gdEYGtk0QGJuTIO34-92" value="" style="endArrow=classic;html=1;rounded=0;exitX=1;exitY=0.5;exitDx=0;exitDy=0;" edge="1" parent="1">
          <mxGeometry width="50" height="50" relative="1" as="geometry">
            <mxPoint x="1058.5" y="980" as="sourcePoint" />
            <mxPoint x="1098.5" y="980" as="targetPoint" />
          </mxGeometry>
        </mxCell>
        <mxCell id="Sv3gdEYGtk0QGJuTIO34-93" value="" style="rounded=1;whiteSpace=wrap;html=1;" vertex="1" parent="1">
          <mxGeometry x="1098.5" y="960" width="80" height="40" as="geometry" />
        </mxCell>
        <mxCell id="Sv3gdEYGtk0QGJuTIO34-94" value="" style="ellipse;whiteSpace=wrap;html=1;aspect=fixed;" vertex="1" parent="1">
          <mxGeometry x="1338.5" y="960" width="40" height="40" as="geometry" />
        </mxCell>
        <mxCell id="Sv3gdEYGtk0QGJuTIO34-95" value="Ввод данных" style="text;html=1;strokeColor=none;fillColor=none;align=center;verticalAlign=middle;whiteSpace=wrap;rounded=0;" vertex="1" parent="1">
          <mxGeometry x="988.5" y="965" width="60" height="30" as="geometry" />
        </mxCell>
        <mxCell id="Sv3gdEYGtk0QGJuTIO34-96" value="Установление прав" style="text;html=1;strokeColor=none;fillColor=none;align=center;verticalAlign=middle;whiteSpace=wrap;rounded=0;" vertex="1" parent="1">
          <mxGeometry x="1108.5" y="965" width="60" height="30" as="geometry" />
        </mxCell>
        <mxCell id="Sv3gdEYGtk0QGJuTIO34-97" value="" style="endArrow=classic;html=1;rounded=0;exitX=1;exitY=0.5;exitDx=0;exitDy=0;" edge="1" parent="1">
          <mxGeometry width="50" height="50" relative="1" as="geometry">
            <mxPoint x="1178.5" y="980" as="sourcePoint" />
            <mxPoint x="1218.5" y="980" as="targetPoint" />
          </mxGeometry>
        </mxCell>
        <mxCell id="Sv3gdEYGtk0QGJuTIO34-98" value="" style="rounded=1;whiteSpace=wrap;html=1;" vertex="1" parent="1">
          <mxGeometry x="1218.5" y="960" width="80" height="40" as="geometry" />
        </mxCell>
        <mxCell id="Sv3gdEYGtk0QGJuTIO34-99" value="" style="endArrow=classic;html=1;rounded=0;entryX=0;entryY=0.5;entryDx=0;entryDy=0;exitX=1;exitY=0.5;exitDx=0;exitDy=0;" edge="1" parent="1" source="Sv3gdEYGtk0QGJuTIO34-98">
          <mxGeometry width="50" height="50" relative="1" as="geometry">
            <mxPoint x="1168.5" y="1080" as="sourcePoint" />
            <mxPoint x="1338.5" y="980" as="targetPoint" />
          </mxGeometry>
        </mxCell>
        <mxCell id="Sv3gdEYGtk0QGJuTIO34-100" value="Добавление в БД" style="text;html=1;strokeColor=none;fillColor=none;align=center;verticalAlign=middle;whiteSpace=wrap;rounded=0;" vertex="1" parent="1">
          <mxGeometry x="1228.5" y="965" width="60" height="30" as="geometry" />
        </mxCell>
        <mxCell id="Sv3gdEYGtk0QGJuTIO34-101" value="" style="shape=datastore;whiteSpace=wrap;html=1;" vertex="1" parent="1">
          <mxGeometry x="1132.5" y="880" width="40" height="40" as="geometry" />
        </mxCell>
        <mxCell id="Sv3gdEYGtk0QGJuTIO34-102" value="Бд чувств. данных" style="text;html=1;strokeColor=none;fillColor=none;align=center;verticalAlign=middle;whiteSpace=wrap;rounded=0;" vertex="1" parent="1">
          <mxGeometry x="1172.5" y="890" width="110" height="30" as="geometry" />
        </mxCell>
        <mxCell id="Sv3gdEYGtk0QGJuTIO34-103" value="" style="endArrow=block;dashed=1;endFill=0;endSize=12;html=1;rounded=0;entryX=0.5;entryY=0;entryDx=0;entryDy=0;exitX=0.5;exitY=1;exitDx=0;exitDy=0;" edge="1" parent="1" source="Sv3gdEYGtk0QGJuTIO34-101" target="Sv3gdEYGtk0QGJuTIO34-98">
          <mxGeometry width="160" relative="1" as="geometry">
            <mxPoint x="998.5" y="910" as="sourcePoint" />
            <mxPoint x="1158.5" y="910" as="targetPoint" />
            <Array as="points">
              <mxPoint x="1152.5" y="940" />
              <mxPoint x="1258.5" y="940" />
            </Array>
          </mxGeometry>
        </mxCell>
        <mxCell id="Sv3gdEYGtk0QGJuTIO34-104" value="&lt;font style=&quot;font-size: 10px;&quot;&gt;Изменние чувствительных данных&lt;/font&gt;" style="text;html=1;strokeColor=none;fillColor=none;align=center;verticalAlign=middle;whiteSpace=wrap;rounded=0;" vertex="1" parent="1">
          <mxGeometry x="958.5" y="855" width="190" height="25" as="geometry" />
        </mxCell>
        <mxCell id="Sv3gdEYGtk0QGJuTIO34-105" value="" style="strokeWidth=2;html=1;shape=mxgraph.flowchart.decision;whiteSpace=wrap;" vertex="1" parent="1">
          <mxGeometry x="1446.5" y="1040" width="40" height="40" as="geometry" />
        </mxCell>
        <mxCell id="Sv3gdEYGtk0QGJuTIO34-106" value="" style="endArrow=none;html=1;rounded=0;" edge="1" parent="1">
          <mxGeometry width="50" height="50" relative="1" as="geometry">
            <mxPoint x="1461.5" y="1065" as="sourcePoint" />
            <mxPoint x="1471.5" y="1055" as="targetPoint" />
          </mxGeometry>
        </mxCell>
        <mxCell id="Sv3gdEYGtk0QGJuTIO34-107" value="" style="endArrow=none;html=1;rounded=0;" edge="1" parent="1">
          <mxGeometry width="50" height="50" relative="1" as="geometry">
            <mxPoint x="1461.5" y="1055" as="sourcePoint" />
            <mxPoint x="1471.5" y="1065" as="targetPoint" />
            <Array as="points">
              <mxPoint x="1461.5" y="1055" />
            </Array>
          </mxGeometry>
        </mxCell>
        <mxCell id="Sv3gdEYGtk0QGJuTIO34-108" value="" style="endArrow=classic;html=1;rounded=0;" edge="1" parent="1">
          <mxGeometry width="50" height="50" relative="1" as="geometry">
            <mxPoint x="1406.5" y="980" as="sourcePoint" />
            <mxPoint x="1466.5" y="1040" as="targetPoint" />
            <Array as="points">
              <mxPoint x="1466.5" y="980" />
            </Array>
          </mxGeometry>
        </mxCell>
        <mxCell id="Sv3gdEYGtk0QGJuTIO34-109" value="" style="endArrow=classic;html=1;rounded=0;exitX=1;exitY=0.5;exitDx=0;exitDy=0;" edge="1" parent="1" source="Sv3gdEYGtk0QGJuTIO34-110">
          <mxGeometry width="50" height="50" relative="1" as="geometry">
            <mxPoint x="1406.5" y="1140" as="sourcePoint" />
            <mxPoint x="1466.5" y="1080" as="targetPoint" />
            <Array as="points">
              <mxPoint x="1466.5" y="1140" />
            </Array>
          </mxGeometry>
        </mxCell>
        <mxCell id="Sv3gdEYGtk0QGJuTIO34-110" value="" style="rounded=1;whiteSpace=wrap;html=1;" vertex="1" parent="1">
          <mxGeometry x="1088.5" y="1120" width="80" height="40" as="geometry" />
        </mxCell>
        <mxCell id="Sv3gdEYGtk0QGJuTIO34-111" value="&lt;font style=&quot;font-size: 7px;&quot;&gt;Удаление существующей записи данных&lt;/font&gt;" style="text;html=1;strokeColor=none;fillColor=none;align=center;verticalAlign=middle;whiteSpace=wrap;rounded=0;" vertex="1" parent="1">
          <mxGeometry x="1098.5" y="1127.5" width="60" height="25" as="geometry" />
        </mxCell>
        <mxCell id="Sv3gdEYGtk0QGJuTIO34-112" value="" style="endArrow=classic;html=1;rounded=0;exitX=1;exitY=0.5;exitDx=0;exitDy=0;exitPerimeter=0;" edge="1" parent="1">
          <mxGeometry width="50" height="50" relative="1" as="geometry">
            <mxPoint x="1486.5" y="1060" as="sourcePoint" />
            <mxPoint x="1526.5" y="1060" as="targetPoint" />
          </mxGeometry>
        </mxCell>
        <mxCell id="Sv3gdEYGtk0QGJuTIO34-113" value="" style="ellipse;whiteSpace=wrap;html=1;aspect=fixed;" vertex="1" parent="1">
          <mxGeometry x="1526.5" y="1040" width="40" height="40" as="geometry" />
        </mxCell>
        <mxCell id="Sv3gdEYGtk0QGJuTIO34-114" value="" style="shape=datastore;whiteSpace=wrap;html=1;" vertex="1" parent="1">
          <mxGeometry x="710" y="750" width="60" height="60" as="geometry" />
        </mxCell>
        <mxCell id="Sv3gdEYGtk0QGJuTIO34-115" value="" style="endArrow=block;dashed=1;endFill=0;endSize=12;html=1;rounded=0;exitX=0.5;exitY=1;exitDx=0;exitDy=0;entryX=1;entryY=0.25;entryDx=0;entryDy=0;" edge="1" parent="1" source="Sv3gdEYGtk0QGJuTIO34-114" target="Sv3gdEYGtk0QGJuTIO34-71">
          <mxGeometry width="160" relative="1" as="geometry">
            <mxPoint x="640" y="1020" as="sourcePoint" />
            <mxPoint x="800" y="1020" as="targetPoint" />
            <Array as="points">
              <mxPoint x="740" y="900" />
            </Array>
          </mxGeometry>
        </mxCell>
        <mxCell id="Sv3gdEYGtk0QGJuTIO34-116" value="" style="endArrow=block;dashed=1;endFill=0;endSize=12;html=1;rounded=0;entryX=0.5;entryY=1;entryDx=0;entryDy=0;" edge="1" parent="1" target="Sv3gdEYGtk0QGJuTIO34-78">
          <mxGeometry width="160" relative="1" as="geometry">
            <mxPoint x="740" y="810" as="sourcePoint" />
            <mxPoint x="800" y="1020" as="targetPoint" />
            <Array as="points">
              <mxPoint x="740" y="1200" />
              <mxPoint x="344" y="1200" />
            </Array>
          </mxGeometry>
        </mxCell>
        <mxCell id="Sv3gdEYGtk0QGJuTIO34-117" value="" style="endArrow=block;dashed=1;endFill=0;endSize=12;html=1;rounded=0;exitX=0.5;exitY=1;exitDx=0;exitDy=0;entryX=0;entryY=0.25;entryDx=0;entryDy=0;" edge="1" parent="1" source="Sv3gdEYGtk0QGJuTIO34-114" target="Sv3gdEYGtk0QGJuTIO34-84">
          <mxGeometry width="160" relative="1" as="geometry">
            <mxPoint x="890" y="1010" as="sourcePoint" />
            <mxPoint x="1050" y="1010" as="targetPoint" />
            <Array as="points">
              <mxPoint x="740" y="900" />
            </Array>
          </mxGeometry>
        </mxCell>
        <mxCell id="Sv3gdEYGtk0QGJuTIO34-118" value="" style="endArrow=block;dashed=1;endFill=0;endSize=12;html=1;rounded=0;exitX=0.5;exitY=1;exitDx=0;exitDy=0;entryX=0.5;entryY=1;entryDx=0;entryDy=0;" edge="1" parent="1" source="Sv3gdEYGtk0QGJuTIO34-114" target="Sv3gdEYGtk0QGJuTIO34-110">
          <mxGeometry width="160" relative="1" as="geometry">
            <mxPoint x="890" y="1010" as="sourcePoint" />
            <mxPoint x="1050" y="1010" as="targetPoint" />
            <Array as="points">
              <mxPoint x="740" y="960" />
              <mxPoint x="740" y="1200" />
              <mxPoint x="1129" y="1200" />
            </Array>
          </mxGeometry>
        </mxCell>
        <mxCell id="Sv3gdEYGtk0QGJuTIO34-119" value="БД Чувствиительных данных" style="text;html=1;strokeColor=none;fillColor=none;align=center;verticalAlign=middle;whiteSpace=wrap;rounded=0;" vertex="1" parent="1">
          <mxGeometry x="770" y="780" width="140" height="30" as="geometry" />
        </mxCell>
        <mxCell id="Sv3gdEYGtk0QGJuTIO34-120" value="Пользователь" style="swimlane;rotation=-90;startSize=23;" vertex="1" parent="1">
          <mxGeometry x="470" y="110" width="520" height="1740" as="geometry" />
        </mxCell>
      </root>
    </mxGraphModel>
  </diagram>
</mxfile>
